{"title":"Dragon Blade 2015 720p BluRay DTS x264 Worldwide7477","uid":12006256,"size":3641421159,"categoryP":"video","categoryS":"hd___movies","magnet":"?xt=urn:btih:9fa006feb377e7df14307c70605450d2c5537a2a&amp;dn=Dragon+Blade+2015+720p+BluRay+DTS+x264+Worldwide7477&amp;tr=udp%3A%2F%2Ftracker.openbittorrent.com%3A80&amp;tr=udp%3A%2F%2Fopen.demonii.com%3A1337&amp;tr=udp%3A%2F%2Ftracker.coppersurfer.tk%3A6969&amp;tr=udp%3A%2F%2Fexodus.desync.com%3A6969","seeders":0,"leechers":2,"uploader":"WW7477","files":12,"time":1433881019,"description":"Complete name                            :Dragon Blade 2015 720p BluRay DTS x264 Worldwide7477.mkv\nFormat                                   : Matroska\nFormat version                           : Version 4 / Version 2\nFile size                                : 3.34 GiB\nDuration                                 : 2h 7mn\nOverall bit rate mode                    : Variable\nOverall bit rate                         : 3 756 Kbps\nMovie name                               : Dragon Blade 2015 720p BluRay DTS x264 Worldwide7477\nEncoded date                             : UTC 2015-06-09 01:27:26\nWriting application                      : mkvmerge v7.4.0 ('Circles') 64bit built on Dec 12 2014 12:19:56\n\nVideo\nID                                       : 1\nFormat                                   : AVC\nFormat/Info                              : Advanced Video Codec\nFormat profile                           : &lt;a class=&quot;__cf_email__&quot; href=&quot;/cdn-cgi/l/email-protection&quot; data-cfemail=&quot;a8e0c1cfc0e8e49c8699&quot;&gt;[email&amp;#160;protected]&lt;/a&gt;&lt;script data-cfhash='f9e31' type=&quot;text/javascript&quot;&gt;\n/* &lt;![CDATA[ */!function(){try{var t=&quot;currentScript&quot;in document?document.currentScript:function(){for(var t=document.getElementsByTagName(&quot;script&quot;),e=t.length;e--;)if(t[e].getAttribute(&quot;data-cfhash&quot;))return t[e]}();if(t&amp;&amp;t.previousSibling){var e,r,n,i,c=t.previousSibling,a=c.getAttribute(&quot;data-cfemail&quot;);if(a){for(e=&quot;&quot;,r=parseInt(a.substr(0,2),16),n=2;a.length-n;n+=2)i=parseInt(a.substr(n,2),16)^r,e+=String.fromCharCode(i);e=document.createTextNode(e),c.parentNode.replaceChild(e,c)}t.parentNode.removeChild(t);}}catch(u){}}()/* ]]&gt; */&lt;/script&gt;\nFormat settings, CABAC                   : Yes\nFormat settings, ReFrames                : 3 frames\nCodec ID                                 : V_MPEG4/ISO/AVC\nDuration                                 : 2h 7mn\nBit rate mode                            : Variable\nBit rate                                 : 3 000 Kbps\nMaximum bit rate                         : 14.0 Mbps\nWidth                                    : 1 280 pixels\nHeight                                   : 528 pixels\nDisplay aspect ratio                     : 2.40:1\nFrame rate mode                          : Constant\nFrame rate                               : 24.000 fps\nColor space                              : YUV\nChroma subsampling                       : 4:2:0\nBit depth                                : 8 bits\nScan type                                : Progressive\nBits/(Pixel*Frame)                       : 0.185\nStream size                              : 2.60 GiB (78%)\nTitle                                    : Dragon Blade 2015 720p BluRay DTS x264 Worldwide7477\n\nLanguage                                 : English\nDefault                                  : Yes\nForced                                   : No\n\nAudio\nID                                       : 2\nFormat                                   : DTS\nFormat/Info                              : Digital Theater Systems\nMode                                     : 16\nFormat settings, Endianness              : Big\nCodec ID                                 : A_DTS\nDuration                                 : 2h 7mn\nBit rate mode                            : Constant\nBit rate                                 : 755 Kbps\nChannel count                            : 6 channels\nChannel positions                        : Front: L C R, Side: L R, LFE\nSampling rate                            : 48.0 KHz\nBit depth                                : 24 bits\nCompression mode                         : Lossy\nStream size                              : 686 MiB (20%)\nTitle                                    : Worldwide7477 (DTS) - Eng+Chi\nLanguage                                 : English\nDefault                                  : Yes\nForced                                   : No\n\nText #1\nID                                       : 3\nFormat                                   : UTF-8\nCodec ID                                 : S_TEXT/UTF8\nCodec ID/Info                            : UTF-8 Plain Text\nTitle                                    : English\nLanguage                                 : English\nDefault                                  : Yes\nForced                                   : No\n\nText #2\nID                                       : 4\nFormat                                   : UTF-8\nCodec ID                                 : S_TEXT/UTF8\nCodec ID/Info                            : UTF-8 Plain Text\nTitle                                    : Spanish\nLanguage                                 : Spanish\nDefault                                  : No\nForced                                   : No\n\nMenu\n00:00:00.000                             : :Chapter 1\n00:05:00.000                             : :Chapter 2\n00:10:00.000                             : :Chapter 3\n00:15:00.000                             : :Chapter 4\n00:20:00.000                             : :Chapter 5\n00:25:00.000                             : :Chapter 6\n00:30:00.000                             : :Chapter 7\n00:35:00.000                             : :Chapter 8\n00:40:00.000                             : :Chapter 9\n00:45:00.000                             : :Chapter 10\n00:50:00.000                             : :Chapter 11\n00:55:00.000                             : :Chapter 12\n01:00:00.000                             : :Chapter 13\n01:05:00.000                             : :Chapter 14\n01:10:00.000                             : :Chapter 15\n01:15:00.000                             : :Chapter 16\n01:20:00.000                             : :Chapter 17\n01:25:00.000                             : :Chapter 18\n01:30:00.000                             : :Chapter 19\n01:35:00.000                             : :Chapter 20\n01:40:00.000                             : :Chapter 21\n01:45:00.000                             : :Chapter 22\n01:50:00.000                             : :Chapter 23\n01:55:00.000                             : :Chapter 24\n02:00:00.000                             : :Chapter 25\n02:05:00.000                             : :Chapter 26","torrent":{"xt":"urn:btih:9fa006feb377e7df14307c70605450d2c5537a2a","amp;dn":"Dragon+Blade+2015+720p+BluRay+DTS+x264+Worldwide7477","amp;tr":["udp%3A%2F%2Ftracker.openbittorrent.com%3A80","udp%3A%2F%2Fopen.demonii.com%3A1337","udp%3A%2F%2Ftracker.coppersurfer.tk%3A6969","udp%3A%2F%2Fexodus.desync.com%3A6969"],"infoHash":"9fa006feb377e7df14307c70605450d2c5537a2a","infoHashBuffer":{"type":"Buffer","data":[159,160,6,254,179,119,231,223,20,48,124,112,96,84,80,210,197,83,122,42]},"announce":[],"urlList":[]}}